<svg id="settings_icon" xmlns="http://www.w3.org/2000/svg" width="40.001" height="40" viewBox="0 0 40.001 40">
  <path id="Объединение_1" data-name="Объединение 1" d="M16.27,40l-1.211-5.669a14.952,14.952,0,0,1-1.611-.661L8.213,37.061,2.939,31.786l3.39-5.233a14.956,14.956,0,0,1-.662-1.612L0,23.729V16.27l5.668-1.211a14.949,14.949,0,0,1,.662-1.612L2.939,8.213,8.213,2.939l5.234,3.39a14.949,14.949,0,0,1,1.612-.662L16.27,0h7.459l1.211,5.668a14.956,14.956,0,0,1,1.612.662l5.233-3.39,5.275,5.274L33.67,13.447a14.952,14.952,0,0,1,.661,1.611L40,16.27v7.459l-5.669,1.211q-.228.664-.518,1.3l3.59,5.541-5.274,5.275-5.382-3.487a14.955,14.955,0,0,1-1.807.757L23.729,40ZM12,19.5A7.5,7.5,0,1,0,19.5,12,7.509,7.509,0,0,0,12,19.5Z"/>
</svg>
